<svg xmlns="http://www.w3.org/2000/svg" xmlns:xlink="http://www.w3.org/1999/xlink" width="120" height="120" style="fill:none"><defs><radialGradient id="a" cx="0" cy="0" r="1" gradientUnits="userSpaceOnUse" gradientTransform="matrix(-34.00015 32.66654 -24.57298 -25.57617 59.326 59.413)"><stop stop-color="#801AB3" stop-opacity="0"/><stop offset="1" stop-color="#4C4CFF" stop-opacity=".5"/></radialGradient><radialGradient id="b" cx="0" cy="0" r="1" gradientUnits="userSpaceOnUse" gradientTransform="matrix(53.50001 -50.00001 37.55596 40.18488 59.6 60.4)" xlink:href="#a"><stop stop-color="#801AB3" stop-opacity="0"/><stop offset="1" stop-color="#4C4CFF"/></radialGradient><radialGradient id="c" cx="0" cy="0" r="1" gradientUnits="userSpaceOnUse" gradientTransform="matrix(48.99995 -51.00002 38.36416 36.85964 59.6 59.988)" xlink:href="#a"><stop stop-color="#801AB3" stop-opacity="0"/><stop offset="1" stop-color="#4C4CFF"/></radialGradient></defs><path style="fill:url(#b);clip-rule:evenodd;fill-opacity:1;fill-rule:evenodd;opacity:.14" d="M110.043 48.853a23.341 23.341 0 0 1 0 23.094L94.7 98.853C90.624 106 83.093 110.4 74.944 110.4H44.255c-8.15 0-15.68-4.401-19.755-11.547L9.156 71.947a23.342 23.342 0 0 1 0-23.094L24.5 21.947C28.575 14.802 36.105 10.4 44.255 10.4h30.689c8.15 0 15.68 4.402 19.755 11.547z"/><path style="fill:url(#c);clip-rule:evenodd;fill-opacity:1;fill-rule:evenodd;opacity:.12" d="M14.966 46.375c-5.822 8.117-5.822 19.108 0 27.225l19.967 27.84c5.822 8.117 16.141 11.513 25.561 8.413l32.308-10.634c9.42-3.1 15.798-11.993 15.798-22.026V42.782c0-10.033-6.378-18.925-15.798-22.026L60.494 10.123c-9.42-3.1-19.739.296-25.56 8.413z"/><path d="M50.251 29.658a15.602 15.602 0 0 1 18.15 0l18.56 13.311c5.411 3.881 7.676 10.76 5.609 17.04l-7.09 21.54c-2.066 6.28-7.994 10.53-14.683 10.53H47.856c-6.689 0-12.617-4.25-14.684-10.53l-7.089-21.54c-2.067-6.28.197-13.159 5.609-17.04z" style="fill:url(#a);clip-rule:evenodd;fill-opacity:.25;fill-rule:evenodd;opacity:.826"/></svg>